<?xml version="1.0" encoding="UTF-8" standalone="no"?>
<!DOCTYPE svg PUBLIC "-//W3C//DTD SVG 1.1//EN"
 "http://www.w3.org/Graphics/SVG/1.1/DTD/svg11.dtd">
<!-- Generated by graphviz version 2.40.1 (20161225.0304)
 -->
<!-- Title: G Pages: 1 -->
<svg width="1350pt" height="525pt"
 viewBox="0.00 0.00 1350.04 525.30" xmlns="http://www.w3.org/2000/svg" xmlns:xlink="http://www.w3.org/1999/xlink">
<g id="graph0" class="graph" transform="scale(1 1) rotate(0) translate(21.6 503.6986)">
<title>G</title>
<polygon fill="#ffffff" stroke="transparent" points="-21.6,21.6 -21.6,-503.6986 1328.4389,-503.6986 1328.4389,21.6 -21.6,21.6"/>
<!-- App.js -->
<g id="node1" class="node">
<title>App.js</title>
<path fill="none" stroke="#000000" d="M46.7994,-272.1482C46.7994,-272.1482 8.1107,-272.1482 8.1107,-272.1482 4.0778,-272.1482 .0448,-268.1152 .0448,-264.0823 .0448,-264.0823 .0448,-256.0164 .0448,-256.0164 .0448,-251.9834 4.0778,-247.9505 8.1107,-247.9505 8.1107,-247.9505 46.7994,-247.9505 46.7994,-247.9505 50.8324,-247.9505 54.8653,-251.9834 54.8653,-256.0164 54.8653,-256.0164 54.8653,-264.0823 54.8653,-264.0823 54.8653,-268.1152 50.8324,-272.1482 46.7994,-272.1482"/>
<text text-anchor="middle" x="27.4551" y="-256.8986" font-family="Arial" font-size="14.00" fill="#000000">App.js</text>
</g>
<!-- navigation/AppNavigator.js -->
<g id="node2" class="node">
<title>navigation/AppNavigator.js</title>
<path fill="none" stroke="#000000" d="M264.5016,-272.1482C264.5016,-272.1482 99.0902,-272.1482 99.0902,-272.1482 95.0572,-272.1482 91.0243,-268.1152 91.0243,-264.0823 91.0243,-264.0823 91.0243,-256.0164 91.0243,-256.0164 91.0243,-251.9834 95.0572,-247.9505 99.0902,-247.9505 99.0902,-247.9505 264.5016,-247.9505 264.5016,-247.9505 268.5346,-247.9505 272.5675,-251.9834 272.5675,-256.0164 272.5675,-256.0164 272.5675,-264.0823 272.5675,-264.0823 272.5675,-268.1152 268.5346,-272.1482 264.5016,-272.1482"/>
<text text-anchor="middle" x="181.7959" y="-256.8986" font-family="Arial" font-size="14.00" fill="#000000">navigation/AppNavigator.js</text>
</g>
<!-- App.js&#45;&gt;navigation/AppNavigator.js -->
<g id="edge1" class="edge">
<title>App.js&#45;&gt;navigation/AppNavigator.js</title>
<path fill="none" stroke="#757575" d="M55.0481,-260.0493C62.6892,-260.0493 71.4548,-260.0493 80.7314,-260.0493"/>
<polygon fill="#757575" stroke="#757575" points="80.9692,-263.5494 90.9692,-260.0493 80.9692,-256.5494 80.9692,-263.5494"/>
</g>
<!-- navigation/MainTabNavigator.js -->
<g id="node6" class="node">
<title>navigation/MainTabNavigator.js</title>
<path fill="none" stroke="#000000" d="M510.2833,-272.1482C510.2833,-272.1482 316.8583,-272.1482 316.8583,-272.1482 312.8253,-272.1482 308.7924,-268.1152 308.7924,-264.0823 308.7924,-264.0823 308.7924,-256.0164 308.7924,-256.0164 308.7924,-251.9834 312.8253,-247.9505 316.8583,-247.9505 316.8583,-247.9505 510.2833,-247.9505 510.2833,-247.9505 514.3163,-247.9505 518.3492,-251.9834 518.3492,-256.0164 518.3492,-256.0164 518.3492,-264.0823 518.3492,-264.0823 518.3492,-268.1152 514.3163,-272.1482 510.2833,-272.1482"/>
<text text-anchor="middle" x="413.5708" y="-256.8986" font-family="Arial" font-size="14.00" fill="#000000">navigation/MainTabNavigator.js</text>
</g>
<!-- navigation/AppNavigator.js&#45;&gt;navigation/MainTabNavigator.js -->
<g id="edge3" class="edge">
<title>navigation/AppNavigator.js&#45;&gt;navigation/MainTabNavigator.js</title>
<path fill="none" stroke="#757575" d="M272.7343,-260.0493C281.2115,-260.0493 289.8758,-260.0493 298.5337,-260.0493"/>
<polygon fill="#757575" stroke="#757575" points="298.683,-263.5494 308.6829,-260.0493 298.6829,-256.5494 298.683,-263.5494"/>
</g>
<!-- components/StyledText.js -->
<g id="node3" class="node">
<title>components/StyledText.js</title>
<path fill="none" stroke="#000000" d="M1038.9968,-440.1482C1038.9968,-440.1482 880.6399,-440.1482 880.6399,-440.1482 876.607,-440.1482 872.574,-436.1152 872.574,-432.0823 872.574,-432.0823 872.574,-424.0164 872.574,-424.0164 872.574,-419.9834 876.607,-415.9505 880.6399,-415.9505 880.6399,-415.9505 1038.9968,-415.9505 1038.9968,-415.9505 1043.0297,-415.9505 1047.0627,-419.9834 1047.0627,-424.0164 1047.0627,-424.0164 1047.0627,-432.0823 1047.0627,-432.0823 1047.0627,-436.1152 1043.0297,-440.1482 1038.9968,-440.1482"/>
<text text-anchor="middle" x="959.8184" y="-424.8986" font-family="Arial" font-size="14.00" fill="#000000">components/StyledText.js</text>
</g>
<!-- components/TabBarIcon.js -->
<g id="node4" class="node">
<title>components/TabBarIcon.js</title>
<path fill="none" stroke="#000000" d="M754.5825,-455.1482C754.5825,-455.1482 589.7573,-455.1482 589.7573,-455.1482 585.7244,-455.1482 581.6914,-451.1152 581.6914,-447.0823 581.6914,-447.0823 581.6914,-439.0164 581.6914,-439.0164 581.6914,-434.9834 585.7244,-430.9505 589.7573,-430.9505 589.7573,-430.9505 754.5825,-430.9505 754.5825,-430.9505 758.6155,-430.9505 762.6484,-434.9834 762.6484,-439.0164 762.6484,-439.0164 762.6484,-447.0823 762.6484,-447.0823 762.6484,-451.1152 758.6155,-455.1482 754.5825,-455.1482"/>
<text text-anchor="middle" x="672.1699" y="-439.8986" font-family="Arial" font-size="14.00" fill="#000000">components/TabBarIcon.js</text>
</g>
<!-- constants/Colors.js -->
<g id="node5" class="node">
<title>constants/Colors.js</title>
<path fill="none" stroke="#000000" d="M1019.0213,-482.1482C1019.0213,-482.1482 900.6154,-482.1482 900.6154,-482.1482 896.5825,-482.1482 892.5495,-478.1152 892.5495,-474.0823 892.5495,-474.0823 892.5495,-466.0164 892.5495,-466.0164 892.5495,-461.9834 896.5825,-457.9505 900.6154,-457.9505 900.6154,-457.9505 1019.0213,-457.9505 1019.0213,-457.9505 1023.0542,-457.9505 1027.0872,-461.9834 1027.0872,-466.0164 1027.0872,-466.0164 1027.0872,-474.0823 1027.0872,-474.0823 1027.0872,-478.1152 1023.0542,-482.1482 1019.0213,-482.1482"/>
<text text-anchor="middle" x="959.8184" y="-466.8986" font-family="Arial" font-size="14.00" fill="#000000">constants/Colors.js</text>
</g>
<!-- components/TabBarIcon.js&#45;&gt;constants/Colors.js -->
<g id="edge2" class="edge">
<title>components/TabBarIcon.js&#45;&gt;constants/Colors.js</title>
<path fill="none" stroke="#757575" d="M762.7889,-451.5552C801.1731,-455.1581 845.443,-459.3135 882.2845,-462.7716"/>
<polygon fill="#757575" stroke="#757575" points="882.1843,-466.2775 892.4677,-463.7275 882.8386,-459.3082 882.1843,-466.2775"/>
</g>
<!-- navigation/MainTabNavigator.js&#45;&gt;components/TabBarIcon.js -->
<g id="edge4" class="edge">
<title>navigation/MainTabNavigator.js&#45;&gt;components/TabBarIcon.js</title>
<path fill="none" stroke="#757575" d="M423.2841,-272.202C444.5632,-298.1359 497.9278,-359.5088 554.46,-396.0493 574.8929,-409.2565 599.6332,-419.8226 621.1486,-427.5653"/>
<polygon fill="#757575" stroke="#757575" points="620.1853,-430.936 630.7801,-430.9234 622.4899,-424.3262 620.1853,-430.936"/>
</g>
<!-- screens/HomeScreen.js -->
<g id="node7" class="node">
<title>screens/HomeScreen.js</title>
<path fill="none" stroke="#000000" d="M746.2178,-387.1482C746.2178,-387.1482 598.1221,-387.1482 598.1221,-387.1482 594.0891,-387.1482 590.0562,-383.1152 590.0562,-379.0823 590.0562,-379.0823 590.0562,-371.0164 590.0562,-371.0164 590.0562,-366.9834 594.0891,-362.9505 598.1221,-362.9505 598.1221,-362.9505 746.2178,-362.9505 746.2178,-362.9505 750.2507,-362.9505 754.2837,-366.9834 754.2837,-371.0164 754.2837,-371.0164 754.2837,-379.0823 754.2837,-379.0823 754.2837,-383.1152 750.2507,-387.1482 746.2178,-387.1482"/>
<text text-anchor="middle" x="672.1699" y="-371.8986" font-family="Arial" font-size="14.00" fill="#000000">screens/HomeScreen.js</text>
</g>
<!-- navigation/MainTabNavigator.js&#45;&gt;screens/HomeScreen.js -->
<g id="edge5" class="edge">
<title>navigation/MainTabNavigator.js&#45;&gt;screens/HomeScreen.js</title>
<path fill="none" stroke="#757575" d="M440.7567,-272.139C487.5126,-292.9315 583.1785,-335.4745 635.6808,-358.8225"/>
<polygon fill="#757575" stroke="#757575" points="634.4008,-362.0837 644.9603,-362.9491 637.2452,-355.6876 634.4008,-362.0837"/>
</g>
<!-- screens/LinksScreen.js -->
<g id="node8" class="node">
<title>screens/LinksScreen.js</title>
<path fill="none" stroke="#000000" d="M744.0552,-293.1482C744.0552,-293.1482 600.2846,-293.1482 600.2846,-293.1482 596.2517,-293.1482 592.2187,-289.1152 592.2187,-285.0823 592.2187,-285.0823 592.2187,-277.0164 592.2187,-277.0164 592.2187,-272.9834 596.2517,-268.9505 600.2846,-268.9505 600.2846,-268.9505 744.0552,-268.9505 744.0552,-268.9505 748.0882,-268.9505 752.1211,-272.9834 752.1211,-277.0164 752.1211,-277.0164 752.1211,-285.0823 752.1211,-285.0823 752.1211,-289.1152 748.0882,-293.1482 744.0552,-293.1482"/>
<text text-anchor="middle" x="672.1699" y="-277.8986" font-family="Arial" font-size="14.00" fill="#000000">screens/LinksScreen.js</text>
</g>
<!-- navigation/MainTabNavigator.js&#45;&gt;screens/LinksScreen.js -->
<g id="edge6" class="edge">
<title>navigation/MainTabNavigator.js&#45;&gt;screens/LinksScreen.js</title>
<path fill="none" stroke="#757575" d="M518.3802,-268.5605C539.34,-270.2626 561.1911,-272.0371 581.6202,-273.6961"/>
<polygon fill="#757575" stroke="#757575" points="581.5912,-277.2051 591.8417,-274.5261 582.1579,-270.2281 581.5912,-277.2051"/>
</g>
<!-- screens/Log/LogScreen.js -->
<g id="node9" class="node">
<title>screens/Log/LogScreen.js</title>
<path fill="none" stroke="#000000" d="M752.9791,-251.1482C752.9791,-251.1482 591.3608,-251.1482 591.3608,-251.1482 587.3278,-251.1482 583.2949,-247.1152 583.2949,-243.0823 583.2949,-243.0823 583.2949,-235.0164 583.2949,-235.0164 583.2949,-230.9834 587.3278,-226.9505 591.3608,-226.9505 591.3608,-226.9505 752.9791,-226.9505 752.9791,-226.9505 757.012,-226.9505 761.045,-230.9834 761.045,-235.0164 761.045,-235.0164 761.045,-243.0823 761.045,-243.0823 761.045,-247.1152 757.012,-251.1482 752.9791,-251.1482"/>
<text text-anchor="middle" x="672.1699" y="-235.8986" font-family="Arial" font-size="14.00" fill="#000000">screens/Log/LogScreen.js</text>
</g>
<!-- navigation/MainTabNavigator.js&#45;&gt;screens/Log/LogScreen.js -->
<g id="edge7" class="edge">
<title>navigation/MainTabNavigator.js&#45;&gt;screens/Log/LogScreen.js</title>
<path fill="none" stroke="#757575" d="M518.3802,-251.5381C536.2867,-250.084 554.8437,-248.577 572.6088,-247.1344"/>
<polygon fill="#757575" stroke="#757575" points="573.2823,-250.5913 582.9662,-246.2933 572.7157,-243.6142 573.2823,-250.5913"/>
</g>
<!-- screens/Retrieve/RetrieveScreen.js -->
<g id="node10" class="node">
<title>screens/Retrieve/RetrieveScreen.js</title>
<path fill="none" stroke="#000000" d="M782.0243,-147.1482C782.0243,-147.1482 562.3155,-147.1482 562.3155,-147.1482 558.2826,-147.1482 554.2496,-143.1152 554.2496,-139.0823 554.2496,-139.0823 554.2496,-131.0164 554.2496,-131.0164 554.2496,-126.9834 558.2826,-122.9505 562.3155,-122.9505 562.3155,-122.9505 782.0243,-122.9505 782.0243,-122.9505 786.0573,-122.9505 790.0902,-126.9834 790.0902,-131.0164 790.0902,-131.0164 790.0902,-139.0823 790.0902,-139.0823 790.0902,-143.1152 786.0573,-147.1482 782.0243,-147.1482"/>
<text text-anchor="middle" x="672.1699" y="-131.8986" font-family="Arial" font-size="14.00" fill="#000000">screens/Retrieve/RetrieveScreen.js</text>
</g>
<!-- navigation/MainTabNavigator.js&#45;&gt;screens/Retrieve/RetrieveScreen.js -->
<g id="edge8" class="edge">
<title>navigation/MainTabNavigator.js&#45;&gt;screens/Retrieve/RetrieveScreen.js</title>
<path fill="none" stroke="#757575" d="M438.8372,-247.8362C485.4982,-225.2815 585.2221,-177.0776 637.9137,-151.6079"/>
<polygon fill="#757575" stroke="#757575" points="639.7015,-154.6312 647.1817,-147.128 636.6551,-148.3288 639.7015,-154.6312"/>
</g>
<!-- screens/SettingsScreen.js -->
<g id="node11" class="node">
<title>screens/SettingsScreen.js</title>
<path fill="none" stroke="#000000" d="M752.9586,-105.1482C752.9586,-105.1482 591.3813,-105.1482 591.3813,-105.1482 587.3483,-105.1482 583.3154,-101.1152 583.3154,-97.0823 583.3154,-97.0823 583.3154,-89.0164 583.3154,-89.0164 583.3154,-84.9834 587.3483,-80.9505 591.3813,-80.9505 591.3813,-80.9505 752.9586,-80.9505 752.9586,-80.9505 756.9915,-80.9505 761.0245,-84.9834 761.0245,-89.0164 761.0245,-89.0164 761.0245,-97.0823 761.0245,-97.0823 761.0245,-101.1152 756.9915,-105.1482 752.9586,-105.1482"/>
<text text-anchor="middle" x="672.1699" y="-89.8986" font-family="Arial" font-size="14.00" fill="#000000">screens/SettingsScreen.js</text>
</g>
<!-- navigation/MainTabNavigator.js&#45;&gt;screens/SettingsScreen.js -->
<g id="edge9" class="edge">
<title>navigation/MainTabNavigator.js&#45;&gt;screens/SettingsScreen.js</title>
<path fill="none" stroke="#757575" d="M421.3518,-247.7702C440.2521,-219.0758 491.6747,-147.5285 554.46,-114.0493 560.4287,-110.8666 566.7852,-108.1538 573.3339,-105.843"/>
<polygon fill="#757575" stroke="#757575" points="574.5852,-109.1175 583.0433,-102.737 572.4524,-102.4503 574.5852,-109.1175"/>
</g>
<!-- screens/HomeScreen.js&#45;&gt;components/StyledText.js -->
<g id="edge10" class="edge">
<title>screens/HomeScreen.js&#45;&gt;components/StyledText.js</title>
<path fill="none" stroke="#757575" d="M726.8181,-387.1156C756.1243,-393.412 792.8967,-401.0342 825.8799,-407.0493 839.708,-409.5711 854.3732,-412.0592 868.7325,-414.392"/>
<polygon fill="#757575" stroke="#757575" points="868.1816,-417.8483 878.6106,-415.9807 869.2932,-410.9371 868.1816,-417.8483"/>
</g>
<!-- screens/Log/CameraInput.js -->
<g id="node13" class="node">
<title>screens/Log/CameraInput.js</title>
<path fill="none" stroke="#000000" d="M1047.3414,-398.1482C1047.3414,-398.1482 872.2954,-398.1482 872.2954,-398.1482 868.2624,-398.1482 864.2295,-394.1152 864.2295,-390.0823 864.2295,-390.0823 864.2295,-382.0164 864.2295,-382.0164 864.2295,-377.9834 868.2624,-373.9505 872.2954,-373.9505 872.2954,-373.9505 1047.3414,-373.9505 1047.3414,-373.9505 1051.3743,-373.9505 1055.4072,-377.9834 1055.4072,-382.0164 1055.4072,-382.0164 1055.4072,-390.0823 1055.4072,-390.0823 1055.4072,-394.1152 1051.3743,-398.1482 1047.3414,-398.1482"/>
<text text-anchor="middle" x="959.8184" y="-382.8986" font-family="Arial" font-size="14.00" fill="#000000">screens/Log/CameraInput.js</text>
</g>
<!-- screens/Log/LogScreen.js&#45;&gt;screens/Log/CameraInput.js -->
<g id="edge12" class="edge">
<title>screens/Log/LogScreen.js&#45;&gt;screens/Log/CameraInput.js</title>
<path fill="none" stroke="#757575" d="M761.074,-244.2168C771.5856,-247.7953 781.5258,-252.8902 789.8799,-260.0493 827.3399,-292.1512 788.0845,-333.343 825.8799,-365.0493 834.3016,-372.1142 844.1083,-377.3003 854.5143,-381.0579"/>
<polygon fill="#757575" stroke="#757575" points="853.627,-384.448 864.2167,-384.1202 855.7339,-377.7726 853.627,-384.448"/>
</g>
<!-- screens/Log/DateField.js -->
<g id="node14" class="node">
<title>screens/Log/DateField.js</title>
<path fill="none" stroke="#000000" d="M1036.8277,-356.1482C1036.8277,-356.1482 882.809,-356.1482 882.809,-356.1482 878.7761,-356.1482 874.7431,-352.1152 874.7431,-348.0823 874.7431,-348.0823 874.7431,-340.0164 874.7431,-340.0164 874.7431,-335.9834 878.7761,-331.9505 882.809,-331.9505 882.809,-331.9505 1036.8277,-331.9505 1036.8277,-331.9505 1040.8606,-331.9505 1044.8936,-335.9834 1044.8936,-340.0164 1044.8936,-340.0164 1044.8936,-348.0823 1044.8936,-348.0823 1044.8936,-352.1152 1040.8606,-356.1482 1036.8277,-356.1482"/>
<text text-anchor="middle" x="959.8184" y="-340.8986" font-family="Arial" font-size="14.00" fill="#000000">screens/Log/DateField.js</text>
</g>
<!-- screens/Log/LogScreen.js&#45;&gt;screens/Log/DateField.js -->
<g id="edge13" class="edge">
<title>screens/Log/LogScreen.js&#45;&gt;screens/Log/DateField.js</title>
<path fill="none" stroke="#757575" d="M761.0809,-246.1455C771.3507,-249.4458 781.2274,-253.949 789.8799,-260.0493 816.2368,-278.6319 799.3291,-304.7448 825.8799,-323.0493 837.4191,-331.0046 850.8369,-336.3952 864.635,-339.9839"/>
<polygon fill="#757575" stroke="#757575" points="864.1997,-343.4745 874.728,-342.2894 865.7586,-336.6503 864.1997,-343.4745"/>
</g>
<!-- screens/Log/GenderPicker.js -->
<g id="node15" class="node">
<title>screens/Log/GenderPicker.js</title>
<path fill="none" stroke="#000000" d="M1049.231,-314.1482C1049.231,-314.1482 870.4057,-314.1482 870.4057,-314.1482 866.3728,-314.1482 862.3398,-310.1152 862.3398,-306.0823 862.3398,-306.0823 862.3398,-298.0164 862.3398,-298.0164 862.3398,-293.9834 866.3728,-289.9505 870.4057,-289.9505 870.4057,-289.9505 1049.231,-289.9505 1049.231,-289.9505 1053.2639,-289.9505 1057.2969,-293.9834 1057.2969,-298.0164 1057.2969,-298.0164 1057.2969,-306.0823 1057.2969,-306.0823 1057.2969,-310.1152 1053.2639,-314.1482 1049.231,-314.1482"/>
<text text-anchor="middle" x="959.8184" y="-298.8986" font-family="Arial" font-size="14.00" fill="#000000">screens/Log/GenderPicker.js</text>
</g>
<!-- screens/Log/LogScreen.js&#45;&gt;screens/Log/GenderPicker.js -->
<g id="edge14" class="edge">
<title>screens/Log/LogScreen.js&#45;&gt;screens/Log/GenderPicker.js</title>
<path fill="none" stroke="#757575" d="M759.8675,-251.1512C770.1283,-253.6038 780.333,-256.5394 789.8799,-260.0493 807.2654,-266.4411 808.4281,-274.8407 825.8799,-281.0493 834.3482,-284.062 843.2705,-286.6432 852.3228,-288.8546"/>
<polygon fill="#757575" stroke="#757575" points="851.6523,-292.2916 862.1813,-291.1119 853.2148,-285.4682 851.6523,-292.2916"/>
</g>
<!-- screens/Log/GeolocationField.js -->
<g id="node16" class="node">
<title>screens/Log/GeolocationField.js</title>
<path fill="none" stroke="#000000" d="M1059.4723,-272.1482C1059.4723,-272.1482 860.1644,-272.1482 860.1644,-272.1482 856.1315,-272.1482 852.0985,-268.1152 852.0985,-264.0823 852.0985,-264.0823 852.0985,-256.0164 852.0985,-256.0164 852.0985,-251.9834 856.1315,-247.9505 860.1644,-247.9505 860.1644,-247.9505 1059.4723,-247.9505 1059.4723,-247.9505 1063.5053,-247.9505 1067.5382,-251.9834 1067.5382,-256.0164 1067.5382,-256.0164 1067.5382,-264.0823 1067.5382,-264.0823 1067.5382,-268.1152 1063.5053,-272.1482 1059.4723,-272.1482"/>
<text text-anchor="middle" x="959.8184" y="-256.8986" font-family="Arial" font-size="14.00" fill="#000000">screens/Log/GeolocationField.js</text>
</g>
<!-- screens/Log/LogScreen.js&#45;&gt;screens/Log/GeolocationField.js -->
<g id="edge15" class="edge">
<title>screens/Log/LogScreen.js&#45;&gt;screens/Log/GeolocationField.js</title>
<path fill="none" stroke="#757575" d="M761.2138,-245.55C786.6713,-247.4086 814.8209,-249.4637 841.7284,-251.4281"/>
<polygon fill="#757575" stroke="#757575" points="841.7435,-254.9384 851.9719,-252.1759 842.2533,-247.957 841.7435,-254.9384"/>
</g>
<!-- screens/Log/PhysicalEvidenceFields.js -->
<g id="node17" class="node">
<title>screens/Log/PhysicalEvidenceFields.js</title>
<path fill="none" stroke="#000000" d="M1080.4791,-230.1482C1080.4791,-230.1482 839.1576,-230.1482 839.1576,-230.1482 835.1246,-230.1482 831.0917,-226.1152 831.0917,-222.0823 831.0917,-222.0823 831.0917,-214.0164 831.0917,-214.0164 831.0917,-209.9834 835.1246,-205.9505 839.1576,-205.9505 839.1576,-205.9505 1080.4791,-205.9505 1080.4791,-205.9505 1084.5121,-205.9505 1088.545,-209.9834 1088.545,-214.0164 1088.545,-214.0164 1088.545,-222.0823 1088.545,-222.0823 1088.545,-226.1152 1084.5121,-230.1482 1080.4791,-230.1482"/>
<text text-anchor="middle" x="959.8184" y="-214.8986" font-family="Arial" font-size="14.00" fill="#000000">screens/Log/PhysicalEvidenceFields.js</text>
</g>
<!-- screens/Log/LogScreen.js&#45;&gt;screens/Log/PhysicalEvidenceFields.js -->
<g id="edge16" class="edge">
<title>screens/Log/LogScreen.js&#45;&gt;screens/Log/PhysicalEvidenceFields.js</title>
<path fill="none" stroke="#757575" d="M761.2138,-232.5486C780.2144,-231.1614 800.7147,-229.6648 821.079,-228.1781"/>
<polygon fill="#757575" stroke="#757575" points="821.3393,-231.6685 831.0578,-227.4496 820.8295,-224.6871 821.3393,-231.6685"/>
</g>
<!-- screens/Log/QrInput.js -->
<g id="node18" class="node">
<title>screens/Log/QrInput.js</title>
<path fill="none" stroke="#000000" d="M1030.1002,-188.1482C1030.1002,-188.1482 889.5365,-188.1482 889.5365,-188.1482 885.5036,-188.1482 881.4706,-184.1152 881.4706,-180.0823 881.4706,-180.0823 881.4706,-172.0164 881.4706,-172.0164 881.4706,-167.9834 885.5036,-163.9505 889.5365,-163.9505 889.5365,-163.9505 1030.1002,-163.9505 1030.1002,-163.9505 1034.1331,-163.9505 1038.1661,-167.9834 1038.1661,-172.0164 1038.1661,-172.0164 1038.1661,-180.0823 1038.1661,-180.0823 1038.1661,-184.1152 1034.1331,-188.1482 1030.1002,-188.1482"/>
<text text-anchor="middle" x="959.8184" y="-172.8986" font-family="Arial" font-size="14.00" fill="#000000">screens/Log/QrInput.js</text>
</g>
<!-- screens/Log/LogScreen.js&#45;&gt;screens/Log/QrInput.js -->
<g id="edge17" class="edge">
<title>screens/Log/LogScreen.js&#45;&gt;screens/Log/QrInput.js</title>
<path fill="none" stroke="#757575" d="M711.6823,-226.9494C742.5543,-217.8133 786.6577,-205.4554 825.8799,-197.0493 840.5113,-193.9135 856.1358,-191.0401 871.3578,-188.4921"/>
<polygon fill="#757575" stroke="#757575" points="871.9857,-191.936 881.2883,-186.8652 870.8539,-185.0281 871.9857,-191.936"/>
</g>
<!-- screens/Log/RadioField.js -->
<g id="node19" class="node">
<title>screens/Log/RadioField.js</title>
<path fill="none" stroke="#000000" d="M1040.3345,-146.1482C1040.3345,-146.1482 879.3022,-146.1482 879.3022,-146.1482 875.2693,-146.1482 871.2363,-142.1152 871.2363,-138.0823 871.2363,-138.0823 871.2363,-130.0164 871.2363,-130.0164 871.2363,-125.9834 875.2693,-121.9505 879.3022,-121.9505 879.3022,-121.9505 1040.3345,-121.9505 1040.3345,-121.9505 1044.3675,-121.9505 1048.4004,-125.9834 1048.4004,-130.0164 1048.4004,-130.0164 1048.4004,-138.0823 1048.4004,-138.0823 1048.4004,-142.1152 1044.3675,-146.1482 1040.3345,-146.1482"/>
<text text-anchor="middle" x="959.8184" y="-130.8986" font-family="Arial" font-size="14.00" fill="#000000">screens/Log/RadioField.js</text>
</g>
<!-- screens/Log/LogScreen.js&#45;&gt;screens/Log/RadioField.js -->
<g id="edge18" class="edge">
<title>screens/Log/LogScreen.js&#45;&gt;screens/Log/RadioField.js</title>
<path fill="none" stroke="#757575" d="M689.6853,-226.8249C717.2855,-208.193 773.1924,-172.9685 825.8799,-155.0493 837.1088,-151.2303 849.1067,-148.1011 861.1357,-145.5381"/>
<polygon fill="#757575" stroke="#757575" points="862.1135,-148.9119 871.2312,-143.5157 860.7384,-142.0482 862.1135,-148.9119"/>
</g>
<!-- screens/Log/submitValuesToDatabase.js -->
<g id="node20" class="node">
<title>screens/Log/submitValuesToDatabase.js</title>
<path fill="none" stroke="#000000" d="M1085.6295,-104.1482C1085.6295,-104.1482 834.0073,-104.1482 834.0073,-104.1482 829.9743,-104.1482 825.9414,-100.1152 825.9414,-96.0823 825.9414,-96.0823 825.9414,-88.0164 825.9414,-88.0164 825.9414,-83.9834 829.9743,-79.9505 834.0073,-79.9505 834.0073,-79.9505 1085.6295,-79.9505 1085.6295,-79.9505 1089.6624,-79.9505 1093.6953,-83.9834 1093.6953,-88.0164 1093.6953,-88.0164 1093.6953,-96.0823 1093.6953,-96.0823 1093.6953,-100.1152 1089.6624,-104.1482 1085.6295,-104.1482"/>
<text text-anchor="middle" x="959.8184" y="-88.8986" font-family="Arial" font-size="14.00" fill="#000000">screens/Log/submitValuesToDatabase.js</text>
</g>
<!-- screens/Log/LogScreen.js&#45;&gt;screens/Log/submitValuesToDatabase.js -->
<g id="edge19" class="edge">
<title>screens/Log/LogScreen.js&#45;&gt;screens/Log/submitValuesToDatabase.js</title>
<path fill="none" stroke="#757575" d="M692.5074,-226.9884C716.9577,-211.9921 758.6023,-184.8368 789.8799,-156.0493 808.2191,-139.1701 804.1839,-125.3179 825.8799,-113.0493 829.1452,-111.2028 832.5231,-109.5049 835.9869,-107.9441"/>
<polygon fill="#757575" stroke="#757575" points="837.4034,-111.1463 845.3379,-104.1252 834.7569,-104.6659 837.4034,-111.1463"/>
</g>
<!-- screens/Log/QrScanner.js -->
<g id="node21" class="node">
<title>screens/Log/QrScanner.js</title>
<path fill="none" stroke="#000000" d="M1298.814,-126.1482C1298.814,-126.1482 1137.7817,-126.1482 1137.7817,-126.1482 1133.7487,-126.1482 1129.7158,-122.1152 1129.7158,-118.0823 1129.7158,-118.0823 1129.7158,-110.0164 1129.7158,-110.0164 1129.7158,-105.9834 1133.7487,-101.9505 1137.7817,-101.9505 1137.7817,-101.9505 1298.814,-101.9505 1298.814,-101.9505 1302.847,-101.9505 1306.8799,-105.9834 1306.8799,-110.0164 1306.8799,-110.0164 1306.8799,-118.0823 1306.8799,-118.0823 1306.8799,-122.1152 1302.847,-126.1482 1298.814,-126.1482"/>
<text text-anchor="middle" x="1218.2979" y="-110.8986" font-family="Arial" font-size="14.00" fill="#000000">screens/Log/QrScanner.js</text>
</g>
<!-- screens/Retrieve/RetrieveScreen.js&#45;&gt;screens/Log/QrScanner.js -->
<g id="edge21" class="edge">
<title>screens/Retrieve/RetrieveScreen.js&#45;&gt;screens/Log/QrScanner.js</title>
<path fill="none" stroke="#757575" d="M770.7246,-122.9351C777.405,-120.4693 783.8629,-117.5358 789.8799,-114.0493 811.4457,-101.5533 803.2964,-81.5954 825.8799,-71.0493 933.7537,-20.674 976.3415,-51.35 1093.7568,-71.0493 1124.6255,-76.2283 1158.0768,-88.1562 1182.5305,-98.1385"/>
<polygon fill="#757575" stroke="#757575" points="1181.1892,-101.3713 1191.7659,-101.9906 1183.8839,-94.9107 1181.1892,-101.3713"/>
</g>
<!-- screens/Retrieve/requests/getEntry.js -->
<g id="node22" class="node">
<title>screens/Retrieve/requests/getEntry.js</title>
<path fill="none" stroke="#000000" d="M1075.368,-24.1482C1075.368,-24.1482 844.2687,-24.1482 844.2687,-24.1482 840.2358,-24.1482 836.2028,-20.1152 836.2028,-16.0823 836.2028,-16.0823 836.2028,-8.0164 836.2028,-8.0164 836.2028,-3.9834 840.2358,.0495 844.2687,.0495 844.2687,.0495 1075.368,.0495 1075.368,.0495 1079.4009,.0495 1083.4339,-3.9834 1083.4339,-8.0164 1083.4339,-8.0164 1083.4339,-16.0823 1083.4339,-16.0823 1083.4339,-20.1152 1079.4009,-24.1482 1075.368,-24.1482"/>
<text text-anchor="middle" x="959.8184" y="-8.8986" font-family="Arial" font-size="14.00" fill="#000000">screens/Retrieve/requests/getEntry.js</text>
</g>
<!-- screens/Retrieve/RetrieveScreen.js&#45;&gt;screens/Retrieve/requests/getEntry.js -->
<g id="edge22" class="edge">
<title>screens/Retrieve/RetrieveScreen.js&#45;&gt;screens/Retrieve/requests/getEntry.js</title>
<path fill="none" stroke="#757575" d="M775.5373,-122.87C780.6031,-120.3711 785.4265,-117.4523 789.8799,-114.0493 819.5777,-91.3562 796.3552,-60.9673 825.8799,-38.0493 830.5549,-34.4205 835.5931,-31.2523 840.8791,-28.4894"/>
<polygon fill="#757575" stroke="#757575" points="842.4241,-31.6307 849.9886,-24.2126 839.4491,-25.2942 842.4241,-31.6307"/>
</g>
<!-- screens/Log/Camera.js -->
<g id="node12" class="node">
<title>screens/Log/Camera.js</title>
<path fill="none" stroke="#000000" d="M1290.1831,-398.1482C1290.1831,-398.1482 1146.4126,-398.1482 1146.4126,-398.1482 1142.3796,-398.1482 1138.3467,-394.1152 1138.3467,-390.0823 1138.3467,-390.0823 1138.3467,-382.0164 1138.3467,-382.0164 1138.3467,-377.9834 1142.3796,-373.9505 1146.4126,-373.9505 1146.4126,-373.9505 1290.1831,-373.9505 1290.1831,-373.9505 1294.2161,-373.9505 1298.249,-377.9834 1298.249,-382.0164 1298.249,-382.0164 1298.249,-390.0823 1298.249,-390.0823 1298.249,-394.1152 1294.2161,-398.1482 1290.1831,-398.1482"/>
<text text-anchor="middle" x="1218.2979" y="-382.8986" font-family="Arial" font-size="14.00" fill="#000000">screens/Log/Camera.js</text>
</g>
<!-- screens/Log/CameraInput.js&#45;&gt;screens/Log/Camera.js -->
<g id="edge11" class="edge">
<title>screens/Log/CameraInput.js&#45;&gt;screens/Log/Camera.js</title>
<path fill="none" stroke="#757575" d="M1055.6993,-386.0493C1079.3531,-386.0493 1104.6073,-386.0493 1127.9869,-386.0493"/>
<polygon fill="#757575" stroke="#757575" points="1128.2318,-389.5494 1138.2318,-386.0493 1128.2317,-382.5494 1128.2318,-389.5494"/>
</g>
<!-- screens/Log/QrInput.js&#45;&gt;screens/Log/QrScanner.js -->
<g id="edge20" class="edge">
<title>screens/Log/QrInput.js&#45;&gt;screens/Log/QrScanner.js</title>
<path fill="none" stroke="#757575" d="M1038.5,-165.8988C1056.7532,-162.941 1076.0244,-159.3282 1093.7568,-155.0493 1121.9572,-148.2444 1152.9444,-138.054 1176.955,-129.5352"/>
<polygon fill="#757575" stroke="#757575" points="1178.2283,-132.7969 1186.4566,-126.1225 1175.8621,-126.2089 1178.2283,-132.7969"/>
</g>
</g>
</svg>
